<?xml version="1.0" encoding="UTF-8"?>
<svg id="Layer_1" xmlns="http://www.w3.org/2000/svg" xmlns:xlink="http://www.w3.org/1999/xlink" version="1.1" viewBox="0 0 1024 1024">
  <!-- Generator: Adobe Illustrator 29.2.1, SVG Export Plug-In . SVG Version: 2.1.0 Build 116)  -->
  <defs>
    <style>
      .st0 {
        fill: #00c2ff;
      }

      .st1 {
        fill: url(#radial-gradient);
      }
    </style>
    <radialGradient id="radial-gradient" cx="12" cy="1012" fx="12" fy="1012" r="1" gradientTransform="translate(6421 -651762.6) rotate(-180) scale(483.4 -644.6)" gradientUnits="userSpaceOnUse">
      <stop offset=".2" stop-color="#006585"/>
      <stop offset="1" stop-color="#00c2ff"/>
    </radialGradient>
  </defs>
  <path class="st0" d="M693.3,900.4c-4.7,1.8-8.4-3.9-5.1-7.6,89.5-101.5,143.8-234.8,143.8-380.8s-54.3-279.3-143.8-380.8c-3.3-3.7.4-9.4,5.1-7.6,156,60,266.7,211.3,266.7,388.4s-110.7,328.4-266.7,388.4Z"/>
  <path class="st1" d="M727.6,267.5c2.1,4.7-4.5,9.5-8.7,6.4-19.4-14.2-53.9-33.9-95-33.9-80,0-192,96-192,272s80,272,176,272,90-20.1,110.7-34.2c4.3-2.9,11,2,8.9,6.8-51.7,117.6-157.5,203.5-279.6,203.5-194.4,0-384-200.6-384-448S253.6,64,448,64s227.9,85.9,279.6,203.5h0Z"/>
</svg>